<svg width="157" height="32" viewBox="0 0 157 32" fill="none" xmlns="http://www.w3.org/2000/svg">
<path d="M24.2158 1.69013V1.72508V1.77319V1.8213V1.86941V1.91752V1.96563V2.01373V2.06184V2.10994V2.15805V2.20615V2.25425V2.30235V2.35044V2.39854V2.44664V2.49473V2.54283V2.59092V2.63901V2.6871V2.73519V2.78328V2.83137V2.87945V2.92754V2.97562V3.02371V3.07179V3.11987V3.16795V3.21603V3.26411V3.31219V3.36026V3.40834V3.45642V3.50449V3.55257V3.60064V3.64871V3.69678V3.74485V3.79292V3.84099V3.88906V3.93713V3.9852V4.03326V4.08133V4.1294V4.17746V4.22552V4.27359V4.32165V4.36971V4.41778V4.46584V4.5139V4.56196V4.61002V4.65808V4.70614V4.7542V4.80225V4.85031V4.89837V4.94643V4.99448V5.04254V5.09059V5.13865V5.1867V5.23476V5.28281V5.33087V5.37892V5.42698V5.47503V5.52308V5.57114V5.61919V5.66724V5.71529V5.76334V5.8114V5.85945V5.9075V5.95555V6.0036V6.05166V6.09971V6.14776V6.19581V6.24386V6.29191V6.33996V6.38802V6.43607V6.48412V6.53217V6.58022V6.62827V6.67633V6.72438V6.77243V6.82048V6.86854V6.91659V6.96464V7.01269V7.06075V7.1088V7.15685V7.20491V7.25296V7.30102V7.34907V7.39713V7.44518V7.49324V7.54129V7.58935V7.63741V7.68547V7.73352V7.78158V7.82964V7.8777V7.92576V7.97382V8.02188V8.06994V8.118V8.16606V8.21413V8.26219V8.31025V8.35832V8.40638V8.45445V8.50251V8.55058V8.59865V8.64672V8.69479V8.74286V8.79093V8.839V8.88707V8.93514V8.98321V9.03129V9.07936V9.12744V9.17552V9.22359V9.27167V9.31975V9.36783V9.41591V9.46399V9.51208V9.56016V9.60824V9.65633V9.70442V9.7525V9.80059V9.84868V9.89677V9.94487V9.99296V10.0411V10.0891V10.1372V10.1853V10.2334V10.2815V10.3296V10.3777V10.4258V10.4739V10.5221V10.5702V10.6183V10.6664V10.7145V10.7626V10.8107V10.8588V10.9069V10.9551V11.0032V11.0513V11.0994V11.1475V11.1957V11.2438V11.2919V11.34V11.3882V11.4363V11.4844V11.5326V11.5807V11.6288V11.677V11.7251V11.7733V11.8214V11.8696V11.9177V11.9659V12.014V12.0622V12.1103V12.1585V12.2066V12.2548V12.3029V12.3511V12.3993V12.4474V12.4956V12.5438V12.5919V12.6401V12.6883V12.7365V12.7846V12.8328V12.881V12.9292V12.9774V13.0256V13.0737V13.1219V13.1701V13.2183V13.2665V13.3147V13.3629V13.4111V13.4593V13.5075V13.5558V13.604V13.6522V13.7004V13.7486V13.7968V13.8451V13.8933V13.9415V13.9897V14.038V14.0862V14.1344V14.1827V14.2309V14.2792V14.3274V14.3757V14.4239V14.4722V14.5204V14.5687V14.6169V14.6652V14.7135V14.7617V14.81V14.8583V14.9066V14.9548V15.0031V15.0514V15.0997V15.148V15.1962V15.2445V15.2928V15.3411V15.3894V15.4377V15.486V15.5344V15.5827V15.631V15.6793V15.7276V15.7759V15.8243V15.8726V15.9209V15.9692V16.0176V16.0659V16.1143V16.1626V16.211V16.2593V16.3077V16.356V16.4044V16.4527V16.5011V16.5495V16.5978V16.6462V16.6946V16.743V16.7913V16.8397V16.8881V16.9365V16.9849V17.0333V17.0817V17.1301V17.1785V17.2269V17.2753V17.3237V17.3722V17.4206V17.469V17.5174V17.5659V17.6143V17.6628V17.7112V17.7596V17.8081V17.8565V17.905V17.9535V18.0019V18.0504V18.0989V18.1473V18.1958V18.2443V18.2928V18.3413V18.3897V18.4382V18.4867V18.5352V18.5837V18.6322V18.6808V18.7293V18.7778V18.8263V18.8748V18.9234V18.9719V19.0204V19.069V19.1175V19.1661V19.2146V19.2632V19.3117V19.3603V19.4089V19.4574V19.506V19.5546V19.6032V19.6517V19.7003V19.7489V19.7975V19.8461V19.8947V19.9433V19.992V20.0406V20.0892V20.1378V20.1864V20.2351V20.2837V20.3324V20.381V20.4296V20.4783V20.527V20.5756V20.6243V20.673V20.7216V20.7703V20.819V20.8677V20.9164V20.9651V21.0138V21.0625V21.1112V21.1599V21.2086V21.2573V21.306V21.3548V21.4035V21.4522V21.501V21.5497V21.5985V21.6472V21.696V21.7448V21.7935V21.8423V21.8911V21.9399V21.9886V22.0374V22.0862V22.135V22.1838V22.2326V22.2815V22.3303V22.3791V22.4279V22.4768V22.5256V22.5744V22.6233V22.6721V22.721V22.7699V22.8187V22.8676V22.9165V22.9653V23.0142V23.0631V23.112V23.1609V23.2098V23.2587V23.3076V23.3566V23.4055V23.4544V23.5033V23.5523V23.6012V23.6502V23.6991V23.7481V23.797V23.846V23.895V23.944V23.9929V24.0419V24.0909V24.1399V24.1889V24.2379V24.287V24.336V24.385V24.434V24.4831V24.5321V24.5811V24.6302V24.6793V24.7283V24.7774V24.8265V24.8755V24.9246V24.9737V25.0228V25.0719V25.121V25.1701V25.2192V25.2636V1.69013ZM24.2158 1.69013H24.2172H24.2282H24.2392H24.2502H24.2612H24.2721H24.2831H24.2941H24.3051H24.3161H24.3271H24.338H24.349H24.36H24.371H24.382H24.393H24.404H24.4149H24.4259H24.4369H24.4479H24.4589H24.4699H24.4809H24.4918H24.5028H24.5138H24.5248H24.5358H24.5468H24.5578H24.5688H24.5797H24.5907H24.6017H24.6127H24.6237H24.6347H24.6457H24.6567H24.6676H24.6786H24.6896H24.7006H24.7116H24.7226H24.7336H24.7446H24.7556H24.7666H24.7776H24.7885H24.7995H24.8105H24.8215H24.8325H24.8435H24.8545H24.8655H24.8765H24.8875H24.8985H24.9095H24.9205H24.9315H24.9425H24.9534H24.9644H24.9754H24.9864H24.9974H25.0084H25.0194H25.0304H25.0414H25.0524H25.0634H25.0744H25.0854H25.0964H25.1074H25.1184H25.1294H25.1404H25.1514H25.1624H25.1734H25.1844H25.1954H25.2064H25.2174H25.2284H25.2394H25.2504H25.2614H25.2724H25.2835H25.2945H25.3055H25.3165H25.3275H25.3385H25.3495H25.3605H25.3715H25.3825H25.3935H25.4045H25.4155H25.4266H25.4376H25.4486H25.4596H25.4706H25.4816H25.4926H25.5036H25.5146H25.5257H25.5367H25.5477H25.5587H25.5697H25.5807H25.5917H25.6028H25.6138H25.6248H25.6358H25.6468H25.6579H25.6689H25.6799H25.6909H25.7019H25.713H25.724H25.735H25.746H25.757H25.7681H25.7791H25.7901H25.8011H25.8122H25.8232H25.8342H25.8452H25.8563H25.8673H25.8783H25.8894H25.9004H25.9114H25.9225H25.9335H25.9445H25.9555H25.9666H25.9776H25.9886H25.9997H26.0107H26.0217H26.0328H26.0438H26.0549H26.0659H26.0769H26.088H26.099H26.1101H26.1211H26.1321H26.1432H26.1542H26.1653H26.1763H26.1873H26.1984H26.2094H26.2205H26.2315H26.2426H26.2536H26.2647H26.2757H26.2868H26.2978H26.3089H26.3199H26.331H26.342H26.3531H26.3641H26.3752H26.3862H26.3973H26.4083H26.4194H26.4305H26.4415H26.4526H26.4636H26.4747H26.4858H26.4968H26.5079H26.5189H26.53H26.5411H26.5521H26.5632H26.5743H26.5853H26.5964H26.6075H26.6185H26.6296H26.6407H26.6518H26.6628H26.6739H26.685H26.696H26.7071H26.7182H26.7293H26.7403H26.7514H26.7625H26.7736H26.7847H26.7957H26.8068H26.8179H26.829H26.8401H26.8512H26.8622H26.8733H26.8844H26.8955H26.9066H26.9177H26.9288H26.9399H26.9509H26.962H26.9731H26.9842H26.9953H27.0064H27.0175H27.0286H27.0397H27.0508H27.0619H27.073H27.0841H27.0952H27.1063H27.1174H27.1285H27.1396H27.1507H27.1618H27.1729H27.184H27.1951H27.2063H27.2174H27.2285H27.2396H27.2507H27.2618H27.2729H27.2841H27.2952H27.3063H27.3174H27.3285H27.3396H27.3508H27.3619H27.373H27.3841H27.3953H27.4064H27.4175H27.4286H27.4398H27.4509H27.462H27.4732H27.4843H27.4954H27.5066H27.5177H27.5288H27.54H27.5511H27.5622H27.5734H27.5845H27.5957H27.6068H27.6179H27.6291H27.6402H27.6514H27.6625H27.6737H27.6848H27.696H27.7071H27.7183H27.7294H27.7406H27.7517H27.7629H27.774H27.7852H27.7964H27.8075H27.8187H27.8298H27.841H27.8522H27.8633H27.8745H27.8857H27.8968H27.908H27.9192H27.9303H27.9415H27.9527H27.9639H27.975H27.9862H27.9974H28.0086H28.0197H28.0309H28.0421H28.0533H28.0645H28.0756H28.0868H28.098H28.1092H28.1204H28.1316H28.1428H28.154H28.1652H28.1764H28.1875H28.1987H28.2099H28.2211H28.2323H28.2435H28.2547H28.2659H28.2771H28.2883H28.2996H28.3108H28.322H28.3332H28.3444H28.3556H28.3668H28.378H28.3892H28.4005H28.4117H28.4229H28.4341H28.4453H28.4566H28.4678H28.479H28.4902H28.5015H28.5127H28.5239H28.5351H28.5464H28.5576H28.5688H28.5801H28.5913H28.6025H28.6138H28.625H28.6363H28.6475H28.6588H28.67H28.6812H28.6925H28.7037H28.715H28.7262H28.7375H28.7487H28.76H28.7712H28.7825H28.7938H28.805H28.8163H28.8275H28.8388H28.8501H28.8613H28.8726H28.8839H28.8951H28.9064H28.9177H28.929H28.9402H28.9515H28.9628H28.9741H28.9853H28.9966H29.0079H29.0192H29.0305H29.0418H29.053H29.0643H29.0756H29.0869H29.0982H29.1095H29.1208H29.1321H29.1434H29.1547H29.166H29.1773H29.1886H29.1999H29.201M24.2158 1.69013H29.201M29.201 1.69013V1.69038V1.69215V1.69392V1.69569V1.69746V1.69923V1.701V1.70276V1.70453V1.7063V1.70806V1.70983V1.71159V1.71335V1.71512V1.71688V1.71864V1.7204V1.72216V1.72392V1.72568V1.72744V1.7292V1.73096V1.73271V1.73447V1.73623V1.73798V1.73974V1.74149V1.74324V1.745V1.74675V1.7485V1.75025V1.752V1.75375V1.7555V1.75725V1.759V1.76074V1.76249V1.76424V1.76598V1.76772V1.76947V1.77121V1.77295V1.7747V1.77644V1.77818V1.77992V1.78166V1.78339V1.78513V1.78687V1.78861V1.79034V1.79208V1.79381V1.79554V1.79728V1.79901V1.80074V1.80247V1.8042V1.80593V1.80766V1.80939V1.81111V1.81284V1.81457V1.81629V1.81801V1.81974V1.82146V1.82318V1.8249V1.82662V1.82834V1.83006V1.83178V1.8335V1.83521V1.83693V1.83865V1.84036V1.84207V1.84379V1.8455V1.84721V1.84892V1.85063V1.85234V1.85404V1.85575V1.85746V1.85916V1.86087V1.86257V1.86428V1.86598V1.86768V1.86938V1.87108V1.87278V1.87448V1.87617V1.87787V1.87957V1.88126V1.88296V1.88465V1.88634V1.88803V1.88972V1.89141V1.8931V1.89479V1.89648V1.89816V1.89985V1.90153V1.90322V1.9049V1.90658V1.90826V1.90994V1.91162V1.9133V1.91498V1.91665V1.91833V1.92V1.92168V1.92335V1.92502V1.92669V1.92836V1.93003V1.9317V1.93337V1.93503V1.9367V1.93836V1.94003V1.94169V1.94335V1.94501V1.94667V1.94833V1.94999V1.95164V1.9533V1.95496V1.95661V1.95826V1.95991V1.96157V1.96322V1.96486V1.96651V1.96816V1.96981V1.97145V1.9731V1.97474V1.97638V1.97802V1.97966V1.9813V1.98294V1.98458V1.98621V1.98785V1.98948V1.99111V1.99275V1.99438V1.99601V1.99764V1.99926V2.00089V2.00252V2.00414V2.00576V2.00739V2.00901V2.01063V2.01225V2.01387V2.01548V2.0171V2.01872V2.02033V2.02194V2.02355V2.02517V2.02678V2.02838V2.02999V2.0316V2.0332V2.03481V2.03641V2.03801V2.03961V2.04121V2.04281V2.04441V2.04601V2.0476V2.0492V2.05079V2.05238V2.05397V2.05556V2.05715V2.05874V2.06032V2.06191V2.06349V2.06508V2.06666V2.06824V2.06982V2.07139V2.07297V2.07455V2.07612V2.0777V2.07927V2.08084V2.08241V2.08398V2.08555V2.08711V2.08868V2.09024V2.0918V2.09336V2.09493V2.09648V2.09804V2.0996V2.10115V2.10271V2.10426V2.10581V2.10736V2.10891V2.11046V2.11201V2.11355V2.1151V2.11664V2.11818V2.11972V2.12126V2.1228V2.12434V2.12587V2.12741V2.12894V2.13047V2.132V2.13353V2.13506V2.13659V2.13811V2.13964V2.14116V2.14268V2.1442V2.14572V2.14724V2.14875V2.15027V2.15178V2.1533V2.15481V2.15632V2.15782V2.15933V2.16084V2.16234V2.16385V2.16535V2.16685V2.16835V2.16984V2.17134V2.17284V2.17433V2.17582V2.17731V2.1788V2.18029V2.18178V2.18326V2.18475V2.18623V2.18771V2.18919V2.19067V2.19215V2.19362V2.1951V2.19657V2.19804V2.19951V2.20098V2.20245V2.20392V2.20538V2.20684V2.20831V2.20977V2.21123V2.24513V2.27904V2.31295V2.34686V2.38077V2.41469V2.4486V2.48252V2.51643V2.55035V2.58427V2.6182V2.65212V2.68604V2.71997V2.7539V2.78783V2.82176V2.85569V2.88962V2.92355V2.95749V2.99142V3.02536V3.0593V3.09324V3.12718V3.16113V3.19507V3.22902V3.26296V3.29691V3.33086V3.36481V3.39876V3.43271V3.46667V3.50062V3.53458V3.56854V3.6025V3.63646V3.67042V3.70438V3.73834V3.77231V3.80627V3.84024V3.87421V3.90818V3.94215V3.97612V4.01009V4.04407V4.07804V4.11202V4.146V4.17998V4.21396V4.24794V4.28192V4.3159V4.34988V4.38387V4.41786V4.45184V4.48583V4.51982V4.55381V4.5878V4.62179V4.65579V4.68978V4.72378V4.75777V4.79177V4.82577V4.85977V4.89377V4.92777V4.96177V4.99578V5.02978V5.06379V5.09779V5.1318V5.16581V5.19982V5.23383V5.26784V5.30185V5.33586V5.36988V5.40389V5.43791V5.47192V5.50594V5.53996V5.57398V5.608V5.64202V5.67604V5.71006V5.74409V5.77811V5.81214V5.84616V5.88019V5.91422V5.94825V5.98227V6.0163V6.05033V6.08437V6.1184V6.15243V6.18647V6.2205V6.25454V6.28857V6.32261V6.35665V6.39069V6.42473V6.45877V6.49281V6.52685V6.56089V6.59493V6.62898V6.66302V6.69707V6.73111V6.76516V6.7992V6.83325V6.8673V6.90135V6.9354V6.96945V7.0035V7.03755V7.0716V7.10566V7.13971V7.17376V7.20782V7.24187V7.27593V7.30999V7.34404V7.3781V7.41216V7.44622V7.48028V7.51434V7.5484V7.58246V7.61652V7.65058V7.68465V7.71871V7.75277V7.78684V7.8209V7.85497V7.88903V7.9231V7.95717V7.99123V8.0253V8.05937V8.09344V8.12751V8.16158V8.19565V8.22972V8.26379V8.29786V8.33193V8.366V8.40008V8.43415V8.46822V8.5023V8.53637V8.57045V8.60452V8.6386V8.67267V8.70675V8.74083V8.7749V8.80898V8.84306V8.87714V8.91121V8.94529V8.97937V9.01345V9.04753V9.08161V9.11569V9.14977V9.18385V9.21793V9.25201V9.28609V9.32018V9.35426V9.38834V9.42242V9.45651V9.49059V9.52467V9.55876V9.59284V9.62692V9.66101V9.69509V9.72918V9.76326V9.79735V9.83143V9.86552V9.8996V9.93369V9.96777V10.0019V10.0359V10.07V10.1041V10.1382V10.1723V10.2064V10.2405V10.2746V10.3086V10.3427V10.3768V10.4109V10.445V10.4791V10.5132V10.5473V10.5813V10.6154V10.6495V10.6836V10.7177V10.7518V10.7859V10.82V10.854V10.8881V10.9222V10.9563V10.9904V11.0245V11.0586V11.0927V11.1267V11.1608V11.1949V11.229V11.2631V11.2972V11.3313V11.3654V11.3995V11.4335V11.4676V11.5017V11.5358V11.5699V11.604V11.6381V11.6721V11.7062V11.7403V11.7744V11.8085V11.8426V11.8767V11.9108V11.9448V11.9789V12.013V12.0471V12.0812V12.1153V12.1493V12.1834V12.2175V12.2516V12.2857V12.3198V12.3539V12.3879V12.422V12.4561V12.4902V12.5243V12.5583V12.5924V12.6265V12.6606V12.6947V12.7288V12.7628V12.7969V12.831V12.8651V12.8991V12.9332V12.9673V13.0014V13.0355V13.0695V13.1036V13.1377V13.1718V13.2058V13.2399V13.274V13.3081V13.3421V13.3762V13.4103V13.4444V13.4784V13.5125V13.5466V13.5807V13.6147V13.6488V13.6829V13.7169V13.751V13.7851V13.8191V13.8532V13.8873V13.9213V13.9554V13.9895V14.0235V14.0576V14.0917V14.1257V14.1598V14.1939V14.2279V14.262V14.296V14.3301V14.3642V14.3982V14.4323V14.4663V14.5004V14.5345V14.5685V14.6026V14.6366V14.6707V14.7047V14.7388V14.7728V14.8069V14.8409V14.875V14.909V14.9431V14.9771V15.0112V15.0452V15.0793V15.1133V15.1474V15.1814V15.2155V15.2495V15.2836V15.3176V15.3516V15.3857V15.4197V15.4538V15.4878V15.5218V15.5559V15.5899V15.6239V15.658V15.692V15.726V15.7601V15.7941V15.8281V15.8622V15.8962V15.9302V15.9643V15.9983V16.0323V16.0663V16.1004V16.1344V16.1684V16.2024V16.2364V16.2705V16.3045V16.3385V16.3725V16.4065V16.4405V16.4746V16.5086V16.5426V16.5766V16.6106V16.6446V16.6786V16.7126V16.7466V16.7807V16.8147V16.8487V16.8827V16.9167V16.9507V16.9847V17.0187V17.0527V17.0867V17.1207V17.1547V17.1887V17.2226V17.2566V17.2906V17.3246V17.3586V17.3926V17.4266V17.4606V17.4946V17.5285V17.5625V17.5965V17.6305V17.6645V17.6984V17.7324V17.7664V17.8004V17.8343V17.8683V17.9023V17.9363V17.9702V18.0042V18.0382V18.0721V18.1061V18.1401V18.174V18.208V18.2419V18.2759V18.3099V18.3438V18.3778V18.4117V18.4457V18.4796V18.5136V18.5475V18.5815V18.6154V18.6494V18.6833V18.7173V18.7512V18.7851V18.8191V18.853V18.887V18.9209V18.9548V18.9888V19.0227V19.0566V19.0905V19.1245V19.1584V19.1923V19.2262V19.2602V19.2941V19.328V19.3619V19.3958V19.4298V19.4637V19.4976V19.5315V19.5654V19.5993V19.6332V1.69013Z" fill="#F2B651" stroke="black" stroke-width="0.7"/>
<path d="M35.7985 21.3754C34.0492 23.1798 32.3624 24.7976 30.8005 26.5398C30.2382 27.0998 29.6135 27.2864 28.8013 27.2242C27.3644 27.162 25.9899 27.2242 24.553 27.2242C28.5514 23.2421 32.4873 19.3843 36.2983 15.5888C39.9843 19.2599 43.9203 23.1798 47.9811 27.2242C45.9819 27.2242 44.0452 27.2242 42.1085 27.2242C41.7961 27.2242 41.4837 26.9131 41.2338 26.6642C39.7969 25.2331 38.2975 23.802 36.8606 22.3087C36.5482 22.0598 36.2358 21.811 35.7985 21.3754Z" fill="white"/>
<path d="M45.6964 2.29894C46.0564 2.30267 46.4123 2.30636 46.7625 2.30892C45.0742 3.99156 43.3755 5.68948 41.6679 7.39635C38.0109 11.0516 34.3129 14.748 30.5882 18.4232V18.413V18.4012V18.3893V18.3775V18.3656V18.3538V18.3419V18.33V18.3182V18.3063V18.2944V18.2826V18.2707V18.2588V18.2469V18.235V18.2232V18.2113V18.1994V18.1875V18.1756V18.1637V18.1518V18.1399V18.128V18.1161V18.1042V18.0923V18.0804V18.0685V18.0566V18.0446V18.0327V18.0208V18.0089V17.997V17.985V17.9731V17.9612V17.9493V17.9373V17.9254V17.9135V17.9015V17.8896V17.8776V17.8657V17.8537V17.8418V17.8299V17.8179V17.8059V17.794V17.782V17.7701V17.7581V17.7462V17.7342V17.7222V17.7103V17.6983V17.6863V17.6743V17.6624V17.6504V17.6384V17.6264V17.6145V17.6025V17.5905V17.5785V17.5665V17.5545V17.5425V17.5305V17.5186V17.5066V17.4946V17.4826V17.4706V17.4586V17.4466V17.4345V17.4225V17.4105V17.3985V17.3865V17.3745V17.3625V17.3505V17.3385V17.3264V17.3144V17.3024V17.2904V17.2783V17.2663V17.2543V17.2423V17.2302V17.2182V17.2062V17.1941V17.1821V17.17V17.158V17.146V17.1339V17.1219V17.1098V17.0978V17.0857V17.0737V17.0616V17.0496V17.0375V17.0255V17.0134V17.0014V16.9893V16.9773V16.9652V16.9531V16.9411V16.929V16.9169V16.9049V16.8928V16.8807V16.8687V16.8566V16.8445V16.8325V16.8204V16.8083V16.7962V16.7842V16.7721V16.76V16.7479V16.7358V16.7237V16.7117V16.6996V16.6875V16.6754V16.6633V16.6512V16.6391V16.627V16.615V16.6029V16.5908V16.5787V16.5666V16.5545V16.5424V16.5303V16.5182V16.5061V16.494V16.4819V16.4698V16.4577V16.4456V16.4334V16.4213V16.4092V16.3971V16.385V16.3729V16.3608V16.3487V16.3366V16.3244V16.3123V16.3002V16.2881V16.276V16.2639V16.2517V16.2396V16.2275V16.2154V16.2033V16.1911V16.179V16.1669V16.1548V16.1426V16.1305V16.1184V16.1063V16.0941V16.082V16.0699V16.0577V16.0456V16.0335V16.0214V16.0092V15.9971V15.985V15.9728V15.9607V15.9486V15.9364V15.9243V15.9121V15.9V15.8879V15.8757V15.8636V15.8515V15.8393V15.8272V15.815V15.8029V15.7907V15.7786V15.7665V15.7543V15.7422V15.73V15.7179V15.7057V15.6936V15.6815V15.6693V15.6572V15.645V15.6329V15.6207V15.6086V15.5964V15.5843V15.5721V15.56V15.5478V15.5357V15.5235V15.5114V15.4992V15.4871V15.4749V15.4628V15.4506V15.4385V15.4263V15.4142V15.402V15.3899V15.3777V15.3656V15.3534V15.3413V15.3291V15.317V15.3048V15.2927V15.2805V15.2684V15.2562V15.2441V15.2319V15.2198V15.2076V15.1955V15.1833V15.1712V15.159V15.1468V15.1347V15.1225V15.1104V15.0982V15.0861V15.0739V15.0618V15.0496V15.0375V15.0253V15.0132V15.001V14.9889V14.9767V14.9646V14.9524V14.9403V14.9281V14.916V14.9038V14.8917V14.8795V14.8674V14.8552V14.8431V14.8309V14.8188V14.8066V14.7945V14.7823V14.7702V14.758V14.7459V14.7337V14.7216V14.7094V14.6973V14.6851V14.673V14.6608V14.6487V14.6366V14.6244V14.6123V14.6001V14.588V14.5758V14.5637V14.5516V14.5394V14.5273V14.5151V14.503V14.4908V14.4787V14.4666V14.4544V14.4423V14.4302V14.418V14.4059V14.3937V14.3816V14.3695V14.3573V14.3452V14.3331V14.3209V14.3088V14.2967V14.2845V14.2724V14.2603V14.2482V14.236V14.2239V14.2118V14.1996V14.1875V14.1754V14.1633V14.1511V14.139V14.1269V14.1148V14.1027V14.0905V14.0784V14.0663V14.0542V14.0421V14.03V14.0178V14.0057V13.9936V13.9815V13.9694V13.9573V13.9452V13.933V13.9209V13.9088V13.8967V13.8846V13.8725V13.8604V13.8483V13.8362V13.8241V13.812V13.7999V13.7878V13.7757V13.7636V13.7515V13.7394V13.7273V13.7152V13.7031V13.691V13.6789V13.6669V13.6548V13.6427V13.6306V13.6185V13.6064V13.5943V13.5823V13.5702V13.5581V13.546V13.5339V13.5219V13.5098V13.4977V13.4856V13.4736V13.4615V13.4494V13.4374V13.4253V13.4132V13.4012V13.3891V13.377V13.365V13.3529V13.3409V13.3288V13.3168V13.3047V13.2926V13.2806V13.2685V13.2565V13.2444V13.2324V13.2204V13.2083V13.1963V13.1842V13.1722V13.1601V13.1481V13.1361V13.124V13.112V13.1C30.5882 13.0308 30.6192 12.9229 30.6942 12.7984C30.7673 12.6771 30.8628 12.5725 30.9475 12.5093L30.9674 12.4944L30.985 12.4769C32.0673 11.399 33.1487 10.315 34.232 9.22924C36.4038 7.05247 38.5829 4.86826 40.7912 2.71044L40.7912 2.71045L40.7936 2.7081C40.891 2.61112 41.0332 2.50703 41.1844 2.42847C41.3416 2.34674 41.4706 2.31234 41.5462 2.31234V2.3125L41.5568 2.31218C42.9413 2.2704 44.3481 2.28497 45.6964 2.29894Z" fill="#F2B651" stroke="black" stroke-width="0.7"/>
<path d="M23.3035 16.1488C23.3035 19.8199 23.3035 23.3043 23.3035 26.9131C19.4925 26.9131 15.744 26.9131 11.8081 26.9131C11.8081 27.5976 11.8081 28.1575 11.8081 28.7798C11.7456 30.8953 10.871 31.7042 8.74685 31.7042C8.30952 31.7042 7.8722 31.7042 7.3724 31.7042C6.18537 31.6419 5.18577 30.9575 5.1233 29.7753C5.06082 27.6598 4.3736 25.8554 3.56142 23.9887C2.49935 21.5621 2.8742 18.7621 3.18657 16.1488C3.18657 15.9622 3.24905 15.7755 3.31152 15.5266C3.1241 15.4644 2.93667 15.4022 2.74925 15.4022C1.56222 15.1533 0.812525 14.2822 0.875 13.1622C0.937475 11.98 1.81212 10.9844 3.06162 11.1089C4.68597 11.2955 5.3732 10.6733 5.81052 9.24224C6.18537 7.87337 6.81012 6.5045 7.3724 5.19785C8.43447 2.52233 10.1213 1.40235 12.9327 1.40235C16.3063 1.40235 19.7424 1.40235 23.241 1.40235C23.241 2.149 23.241 2.83344 23.241 3.64232C21.5542 3.64232 19.8674 3.64232 18.1806 3.64232C16.3688 3.64232 14.4945 3.70454 12.6828 3.64232C11.3083 3.5801 10.3712 4.26453 9.80892 5.38452C8.93427 7.31338 8.1221 9.24224 7.3724 11.2333C6.8726 12.6022 7.24745 13.7844 8.43447 14.7177C9.80892 15.8377 11.4333 16.1488 13.1826 16.1488C16.4937 16.1488 19.8674 16.1488 23.3035 16.1488ZM9.99635 23.9887C10.871 23.6776 11.6832 23.5532 12.3079 23.1798C14.1197 22.1221 14.1197 20.1932 12.3079 19.1354C10.746 18.2021 9.1217 18.2643 7.55982 19.1977C5.93547 20.1932 5.81052 22.0598 7.43487 23.0554C8.18457 23.5532 9.1217 23.7398 9.99635 23.9887Z" fill="white"/>
<path d="M23.3035 11.5444C23.3035 12.7266 23.3035 13.7844 23.3035 14.9666C22.2414 14.9666 21.2418 14.9666 20.3047 14.9666C17.8057 14.9666 15.3692 15.0288 12.8702 14.9044C11.8081 14.8422 10.6836 14.4688 9.68397 14.0955C9.24665 13.9711 8.8718 13.4733 8.68437 13.1C8.24705 12.3533 8.55942 11.5444 9.3716 11.5444C13.9323 11.5444 18.5554 11.5444 23.3035 11.5444Z" fill="white"/>
<path d="M9.99635 23.9887C9.18417 23.6776 8.24705 23.4909 7.43487 23.0554C5.81052 22.0598 5.93547 20.131 7.55982 19.1977C9.1217 18.2643 10.746 18.2643 12.3079 19.1354C14.1197 20.1932 14.1197 22.1843 12.3079 23.1798C11.6207 23.5532 10.8085 23.7398 9.99635 23.9887Z" fill="#F2B651"/>
<path d="M54.9783 1.34013V27.4109H49.7304V1.34013H54.9783Z" fill="white"/>
<path d="M73.6583 27.4109L67.9106 17.2688H65.4116V27.4109H60.1637V1.34013H69.9723C71.9715 1.34013 73.7208 1.71345 75.1577 2.39789C76.5947 3.08232 77.6567 4.07787 78.344 5.26007C79.0312 6.44228 79.406 7.81115 79.406 9.30446C79.406 11.0467 78.9062 12.6022 77.9066 13.9711C76.907 15.3399 75.4076 16.3355 73.4709 16.8333L79.7184 27.4109H73.6583ZM65.4116 13.3489H69.7849C71.2218 13.3489 72.2839 13.0377 72.9711 12.3533C73.6583 11.6689 74.0332 10.7356 74.0332 9.49113C74.0332 8.30892 73.6583 7.3756 72.9711 6.69117C72.2839 6.00673 71.2218 5.69562 69.7849 5.69562H65.4116V13.3489Z" fill="white"/>
<path d="M98.9607 27.4109L89.4645 15.7755V27.4109H84.2166V1.34013H89.4645V13.0377L98.9607 1.34013H105.271L94.4625 14.2822L105.583 27.4109H98.9607Z" fill="white"/>
<path d="M114.454 25.9176C112.393 24.7976 110.768 23.1798 109.581 21.1265C108.394 19.0732 107.77 16.8333 107.77 14.22C107.77 11.6689 108.394 9.42891 109.581 7.3756C110.768 5.32229 112.393 3.76676 114.454 2.58455C116.454 1.52679 118.703 0.966797 121.202 0.966797C123.701 0.966797 125.95 1.52679 127.949 2.709C130.011 3.82898 131.573 5.44674 132.76 7.50004C133.947 9.55335 134.509 11.7933 134.509 14.3444C134.509 16.8955 133.884 19.1977 132.76 21.251C131.573 23.3043 129.948 24.8598 127.887 26.042C125.825 27.162 123.576 27.7842 121.139 27.7842C118.703 27.6598 116.454 27.0998 114.454 25.9176ZM125.325 21.9354C126.512 21.251 127.449 20.1932 128.137 18.8866C128.824 17.5799 129.136 16.0244 129.136 14.2822C129.136 12.54 128.824 10.9844 128.137 9.67779C127.449 8.37114 126.512 7.3756 125.325 6.69116C124.138 6.00673 122.764 5.6334 121.139 5.6334C119.577 5.6334 118.141 6.00673 116.953 6.69116C115.766 7.3756 114.829 8.37114 114.142 9.67779C113.455 10.9844 113.143 12.54 113.143 14.2822C113.143 16.0244 113.455 17.5799 114.142 18.8866C114.829 20.1932 115.766 21.251 116.953 21.9354C118.141 22.6198 119.577 22.9932 121.139 22.9932C122.764 22.9932 124.138 22.6198 125.325 21.9354Z" fill="white"/>
<path d="M142.568 26.7265C141.131 26.1042 139.944 25.2331 139.132 24.0509C138.257 22.8687 137.82 21.4999 137.82 19.8821H143.443C143.505 20.9399 143.88 21.811 144.567 22.4332C145.255 23.0554 146.192 23.3665 147.379 23.3665C148.628 23.3665 149.565 23.0554 150.253 22.4954C150.94 21.9354 151.315 21.1265 151.315 20.1932C151.315 19.4466 151.065 18.7621 150.627 18.2643C150.128 17.7666 149.565 17.3932 148.878 17.0821C148.191 16.771 147.191 16.4599 145.942 16.1488C144.255 15.651 142.881 15.1533 141.819 14.6555C140.756 14.1577 139.819 13.4111 139.07 12.4778C138.32 11.4822 137.945 10.1756 137.945 8.55781C137.945 7.00227 138.32 5.69562 139.132 4.51342C139.882 3.39343 141.006 2.52233 142.381 1.90012C143.755 1.2779 145.38 0.966797 147.191 0.966797C149.878 0.966797 152.064 1.58901 153.751 2.89566C155.438 4.20231 156.375 6.00673 156.563 8.37114H150.815C150.752 7.50004 150.378 6.75339 149.69 6.13117C149.003 5.57118 148.004 5.26007 146.879 5.26007C145.879 5.26007 145.005 5.50896 144.442 6.06895C143.818 6.56672 143.505 7.3756 143.505 8.37114C143.505 9.05558 143.755 9.67779 144.193 10.1133C144.63 10.5489 145.255 10.9222 145.942 11.2333C146.629 11.5444 147.566 11.8555 148.878 12.2289C150.565 12.7266 151.939 13.2244 153.064 13.7222C154.126 14.22 155.063 14.9666 155.813 15.9622C156.563 16.9577 157 18.2643 157 19.8821C157 21.251 156.625 22.5576 155.938 23.7398C155.251 24.922 154.126 25.8554 152.752 26.602C151.377 27.2864 149.69 27.6598 147.754 27.6598C145.692 27.6598 144.005 27.3487 142.568 26.7265Z" fill="white"/>
<path d="M126.287 14.5933C126.287 17.3539 124.04 19.5943 121.264 19.5943C118.489 19.5943 116.241 17.3539 116.241 14.5933C116.241 11.8326 118.489 9.59224 121.264 9.59224C124.04 9.59224 126.287 11.8326 126.287 14.5933Z" fill="#F2B651" stroke="black" stroke-width="0.7"/>
</svg>
